<?xml version="1.0" encoding="UTF-8"?>
<svg id="Layer_1" data-name="Layer 1" xmlns="http://www.w3.org/2000/svg" viewBox="0 0 512 512">
  <defs>
    <style>
      .cls-1 {
        fill: current-color;
        stroke-width: 0px;
      }
    </style>
  </defs>
  <path class="cls-1" d="m512,90v332c-.4.88-1,1.71-1.16,2.63-7.53,42.59-32.02,70.33-73.15,83.41-5.13,1.63-10.46,2.65-15.69,3.96H90c-.83-.41-1.63-1.06-2.5-1.19-41.83-6.06-75.34-37.3-84.53-78.91C1.88,426.96.99,421.97,0,417,0,309.67,0,202.33,0,95c.73-3.46,1.62-6.89,2.18-10.37C8.36,45.54,40.63,11.44,79.28,3.23c5.23-1.11,10.48-2.15,15.72-3.23,107.33,0,214.67,0,322,0,2.38.46,4.75.94,7.13,1.37,41.82,7.55,69.82,31.25,83.47,71.59,1.87,5.54,2.96,11.35,4.4,17.04Zm-230.03,167.23c-.42-.04-.84-.09-1.26-.13-.52-1.35-1.08-2.69-1.54-4.07-6.31-18.88-12.67-37.74-18.87-56.66-1.32-4.02-3.29-6.01-7.88-5.78-7.65.37-15.33.25-22.99.04-3.77-.1-5.68,1.25-6.85,4.92-6.24,19.61-12.69,39.16-19.11,58.71-3.1,9.47-6.28,18.91-9.72,29.23-.77-2.02-1.17-2.93-1.47-3.87-8.95-28.66-17.9-57.33-26.83-86-2.18-7-3.83-8.06-11.03-7.76-9.31.39-18.63.57-27.95.85-1.78.05-3.56.15-6,.26.48,2,.72,3.41,1.16,4.76,15.63,48.31,31.28,96.62,46.93,144.93,2.21,6.83,3.55,7.71,10.82,7.46,8.82-.31,17.64-.79,26.46-.69,4.22.05,6.21-1.4,7.57-5.36,6.79-19.78,13.84-39.48,20.83-59.19,2.19-6.17,4.47-12.31,6.96-19.17.73,1.93,1.18,3,1.54,4.1,8.02,24.44,16.11,48.85,23.99,73.34,1.43,4.44,3.55,6.84,8.53,6.21,2.79-.36,5.66-.06,8.49-.06,16.33-.01,16.24-.04,21.64-15.68,7.75-22.44,15.51-44.87,23.54-67.21,4.07-11.34,12.5-17.7,24.46-19.26,27.56-3.6,45.28-32.31,36.16-58.71-.45-1.31-1.49-2.41-2.26-3.6-1.3.84-2.96,1.41-3.85,2.57-5.69,7.39-11.29,14.85-16.75,22.41-1.67,2.32-3.24,3.26-6.22,2.52-4.82-1.19-9.76-1.93-14.68-2.62-4.26-.6-7.4-2.22-9.01-6.58-1.5-4.04-3.88-7.76-5.24-11.83-.6-1.81-.32-4.58.71-6.17,5.16-7.96,10.76-15.63,16.05-23.5.93-1.39,2.09-4.03,1.51-4.73-1.06-1.28-3.35-2.11-5.12-2.1-4.46.03-9,.22-13.36,1.08-23.39,4.6-34.64,29.91-32.86,46.8.69,6.54,2.25,13.76.31,19.64-4.62,13.96-11.09,27.31-16.82,40.91Z"/>
</svg>